# xmcd
#
# Track frame offsets:
#	150
#	17300
#	36503
#	66940
#	95610
#	114595
#
# Disc length: 1761 seconds
#
# Revision: 1
# Processed by: cddbd v1.5.2PL0 Copyright (c) Steve Scherf et al.
# Submitted via: EZCDAudioConverter 1.3.4.1
#
DISCID=4906df06
DTITLE=Robert Palmer - Tell Me I'm Not Dreaming CD Single
DYEAR=1989
DGENRE=Pop, Rock
TTITLE0=Tell Me I'm Not Dreaming
TTITLE1=Tell Me I'm Not Dreaming [12'' Edit]
TTITLE2=Tell Me I'm Not Dreaming (Westerville)
TTITLE3=Tell Me I'm Not Dreaming (Dub 1 Wild Thang)
TTITLE4=Tell Me I'm Not Dreaming (Dub 2 Acca Dub)
TTITLE5=Tell Me I'm Not Dreaming (Dub 3 Roey-Age) 
EXTD=
EXTT0=
EXTT1=
EXTT2=
EXTT3=
EXTT4=
EXTT5=
PLAYORDER=
